<svg width="40" height="40" viewBox="0 0 40 40" fill="none" xmlns="http://www.w3.org/2000/svg">
<path d="M9.91669 6C10.9167 5 10.1667 2 8.47869 2C6.79069 2 6.91669 4 7.91669 4C8.91669 4 8.91669 6 8.91669 7C8.91669 8 9.91669 6 9.91669 6ZM5.73369 7.72C6.73369 6.72 5.98369 3.72 4.29569 3.72C2.60769 3.72 2.73369 5.72 3.73369 5.72C4.73369 5.72 4.73369 7.72 4.73369 8.72C4.73369 9.72 5.73369 7.72 5.73369 7.72Z" fill="#AA8DD8"/>
<path d="M32.1087 34.856C32.2977 35.664 33.3357 37.136 34.1407 36.947C34.9467 36.757 35.2177 34.976 35.0287 34.17C34.8397 33.362 34.0307 32.863 33.2247 33.053C32.4197 33.243 31.9187 34.05 32.1087 34.856ZM26.6747 35.505C26.6777 36.335 27.3557 38.003 28.1837 38C29.0117 37.996 29.6777 36.323 29.6747 35.494C29.6717 34.665 28.9977 33.997 28.1697 33.999C27.3417 34.003 26.6717 34.676 26.6747 35.505ZM21.4037 33.059C21.0777 33.823 21.0387 35.622 21.7997 35.949C22.5627 36.273 23.8367 35.002 24.1627 34.239C24.4877 33.477 24.1347 32.596 23.3737 32.269C22.6117 31.944 21.7307 32.296 21.4037 33.059ZM16.3727 22.019C15.5607 22.191 14.0647 23.192 14.2337 24.002C14.4067 24.812 16.1787 25.126 16.9907 24.955C17.8017 24.784 18.3197 23.988 18.1507 23.178C17.9787 22.368 17.1857 21.848 16.3727 22.019ZM14.3357 17.019C13.5237 17.191 12.0277 18.192 12.1967 19.002C12.3697 19.812 14.1417 20.126 14.9537 19.955C15.7647 19.784 16.2827 18.988 16.1137 18.178C15.9417 17.368 15.1477 16.848 14.3357 17.019Z" fill="#744EAA"/>
<path d="M29.7457 36C32.5767 36 34.6717 35.123 35.0117 34.973C37.2827 33.963 38.3047 31.304 37.2957 29.034C36.2967 26.784 33.6797 25.759 31.4237 26.72C31.2907 26.77 29.6307 27.369 28.0807 26.648C26.2297 25.787 25.0857 23.339 24.4527 21.439C24.3087 21.009 24.0677 20.165 23.7667 19.123C21.9007 12.652 20.9347 10.838 19.7837 9.30299C16.0727 4.35199 10.1917 4.00699 7.30068 4.58699C4.86368 5.07399 3.28268 7.44499 3.77068 9.88199C4.25868 12.32 6.63068 13.902 9.06668 13.412C9.22868 13.386 11.2707 13.106 12.4907 14.581C13.1337 15.868 14.5707 19.709 15.1207 21.615C15.4667 22.814 15.7497 23.786 15.9147 24.282C17.6877 29.599 20.5807 33.175 24.5177 34.911C26.3697 35.729 28.1717 36 29.7457 36Z" fill="#9266CC"/>
<path d="M9.18372 8C9.736 8 10.1837 7.55228 10.1837 7C10.1837 6.44772 9.736 6 9.18372 6C8.63143 6 8.18372 6.44772 8.18372 7C8.18372 7.55228 8.63143 8 9.18372 8Z" fill="#202024"/>
<path d="M33.4248 34.964C33.3358 34.964 33.2448 34.952 33.1558 34.928C32.6238 34.78 32.3118 34.229 32.4598 33.697C33.2168 30.975 31.6898 29.155 31.6748 29.137C31.3158 28.718 31.3628 28.086 31.7818 27.727C32.1998 27.368 32.8328 27.415 33.1918 27.834C33.2838 27.941 35.4258 30.494 34.3868 34.231C34.2648 34.674 33.8618 34.964 33.4248 34.964ZM26.2258 34.401C25.9808 34.401 25.7358 34.312 25.5418 34.131C25.1388 33.753 25.1178 33.12 25.4948 32.717C26.9798 31.13 26.9478 28.524 26.9468 28.497C26.9308 27.945 27.3658 27.485 27.9188 27.469C28.4608 27.464 28.9318 27.888 28.9468 28.441C28.9508 28.58 29.0198 31.878 26.9558 34.085C26.7588 34.295 26.4918 34.401 26.2258 34.401ZM17.6838 25.705C17.2038 25.705 16.7798 25.358 16.6988 24.868C16.6088 24.324 16.9768 23.808 17.5218 23.719C20.5958 23.209 22.2958 21.342 22.3128 21.323C22.6778 20.913 23.3108 20.874 23.7218 21.239C24.1338 21.604 24.1748 22.232 23.8128 22.645C23.7258 22.744 21.6568 25.06 17.8488 25.691C17.7928 25.701 17.7378 25.705 17.6838 25.705ZM20.6048 30.562C20.1798 30.562 19.7858 30.29 19.6508 29.864C19.4848 29.338 19.7768 28.775 20.3028 28.609C22.9958 27.756 24.1828 25.779 24.1948 25.759C24.4748 25.282 25.0868 25.122 25.5628 25.402C26.0398 25.681 26.1988 26.295 25.9198 26.77C25.8568 26.878 24.3248 29.433 20.9068 30.514C20.8058 30.547 20.7038 30.562 20.6048 30.562ZM15.9858 19.892C15.4898 19.892 15.0588 19.523 14.9948 19.017C14.9258 18.469 15.3138 17.969 15.8618 17.899C18.5508 17.559 20.5188 15.928 20.5378 15.911C20.9598 15.557 21.5908 15.608 21.9458 16.03C22.3018 16.451 22.2508 17.08 21.8308 17.437C21.7338 17.52 19.4108 19.466 16.1128 19.883C16.0698 19.889 16.0278 19.892 15.9858 19.892ZM14.1648 15.125C13.7398 15.125 13.3458 14.852 13.2108 14.424C13.0458 13.897 13.3378 13.336 13.8648 13.17C16.9948 12.187 18.1178 10.478 18.1638 10.406C18.4588 9.94397 19.0748 9.80097 19.5388 10.094C20.0038 10.386 20.1498 10.993 19.8628 11.46C19.8028 11.557 18.3568 13.856 14.4638 15.079C14.3648 15.11 14.2638 15.125 14.1648 15.125Z" fill="#744EAA"/>
</svg>
